<?xml version="1.0" encoding="UTF-8"?>
<svg width="400px" height="400px" viewBox="0 0 400 400" version="1.1" xmlns="http://www.w3.org/2000/svg" xmlns:xlink="http://www.w3.org/1999/xlink">
    <!-- Generator: Sketch 51.1 (57501) - http://www.bohemiancoding.com/sketch -->
    <title>all outline beta</title>
    <desc>Created with Sketch.</desc>
    <defs></defs>
    <g id="all-outline-beta" stroke="none" stroke-width="1" fill="none" fill-rule="evenodd">
        <g id="Group-2" transform="translate(16.000000, 99.000000)">
            <g id="Group">
                <path d="M34.8998393,114.503041 C43.7443191,114.503041 50.556959,117.132481 56.6524789,122.271841 L48.525119,133.506721 C44.4614391,130.399201 40.7563192,128.964961 36.4535993,128.964961 C28.3262394,128.964961 23.6649595,134.462881 23.6649595,148.685761 C23.6649595,162.78912 28.6847994,167.09184 36.2145593,167.09184 C40.7563192,167.09184 43.8638391,165.6576 48.405599,162.78912 L56.6524789,174.50208 C50.795999,179.16336 43.9833591,182.03184 35.2583993,182.03184 C15.7766397,182.03184 3.82463992,168.88464 3.82463992,148.805281 C3.82463992,128.606401 15.8961597,114.503041 34.8998393,114.503041 Z M81.5126384,182.03184 C70.5167986,182.03184 64.0627187,175.45824 64.0627187,163.8648 L64.0627187,91.3161618 L82.9468783,89.2843218 L82.9468783,163.14768 C82.9468783,165.77712 83.9030383,167.09184 86.1739183,167.09184 C87.4886382,167.09184 88.4447982,166.8528 89.2814382,166.49424 L92.9865581,179.88048 C90.1180782,181.07568 86.0543983,182.03184 81.5126384,182.03184 Z M110.675518,83.0692819 C117.249118,83.0692819 121.910398,87.7305619 121.910398,93.8260817 C121.910398,99.9216016 117.249118,104.582882 110.675518,104.582882 C104.101918,104.582882 99.560158,99.9216016 99.560158,93.8260817 C99.560158,87.7305619 104.101918,83.0692819 110.675518,83.0692819 Z M120.117598,116.534881 L120.117598,172.8288 C120.117598,193.50576 109.480318,201.03552 94.6598381,206.413919 L88.3252782,192.66912 C96.4526381,188.964 101.233438,185.61744 101.233438,174.024 L101.233438,116.534881 L120.117598,116.534881 Z M172.945437,89.2843218 L191.829596,91.3161618 L191.829596,180 L175.096796,180 L174.140636,172.58976 C170.555037,177.84864 164.698557,182.03184 156.093117,182.03184 C139.957917,182.03184 131.950077,168.6456 131.950077,148.088161 C131.950077,128.486881 141.870237,114.503041 158.244477,114.503041 C163.981437,114.503041 169.120797,116.773921 172.945437,120.479041 L172.945437,89.2843218 Z M162.069117,168.16752 C166.491357,168.16752 169.957437,165.77712 172.945437,161.11584 L172.945437,133.626241 C170.076957,130.279681 167.208477,128.247841 163.144797,128.247841 C156.332157,128.247841 151.551357,133.984801 151.551357,148.207681 C151.551357,163.98432 155.854077,168.16752 162.069117,168.16752 Z M234.139675,114.503041 C253.501915,114.503041 265.214875,126.933121 265.214875,148.327201 C265.214875,168.6456 253.501915,182.03184 234.139675,182.03184 C214.896956,182.03184 203.064476,169.60176 203.064476,148.207681 C203.064476,127.889281 214.777436,114.503041 234.139675,114.503041 Z M234.139675,128.367361 C226.490395,128.367361 222.665756,134.462881 222.665756,148.207681 C222.665756,162.31104 226.490395,168.16752 234.139675,168.16752 C241.788955,168.16752 245.613595,162.072 245.613595,148.327201 C245.613595,134.223841 241.788955,128.367361 234.139675,128.367361 Z M303.939354,114.503041 C312.783834,114.503041 319.596474,117.132481 325.691993,122.271841 L317.564634,133.506721 C313.500954,130.399201 309.795834,128.964961 305.493114,128.964961 C297.365754,128.964961 292.704474,134.462881 292.704474,148.685761 C292.704474,162.78912 297.724314,167.09184 305.254074,167.09184 C309.795834,167.09184 312.903354,165.6576 317.445114,162.78912 L325.691993,174.50208 C319.835514,179.16336 313.022874,182.03184 304.297914,182.03184 C284.816154,182.03184 272.864155,168.88464 272.864155,148.805281 C272.864155,128.606401 284.935674,114.503041 303.939354,114.503041 Z" id="cljdoc" fill="#000000"></path>
                <polygon id="Path" fill="#357EDD" fill-rule="nonzero" points="190.480004 15.3200002 190.480004 80.8241516 175.840003 79.1724453 175.840003 0.679999828 305.702192 0.679999828 355.121379 45.7711208 355.121379 227.017034 175.840003 227.017034 175.840003 189.717657 190.480004 189.717657 190.480004 212.377034 340.481379 212.377034 340.481379 52.2314893 300.026944 15.3200002"></polygon>
            </g>
            <path d="M220.458,45.535 C224.963,46.012 230.793,47.92 230.793,56.029 C230.793,63.131 225.811,67.901 218.497,67.901 C215.741,67.901 213.462,67 211.342,65.516 L211.342,77.6 L203.286,78.766 L203.286,38.062 C203.286,30.907 208.427,26.773 215.741,26.773 C223.214,26.773 227.825,30.907 227.825,36.631 C227.825,41.401 225.175,44.475 220.458,45.535 Z M216.589,61.488 C219.557,61.488 222.366,59.739 222.366,55.34 C222.366,50.411 219.451,48.768 215.582,48.768 L213.515,48.768 L214.045,43.097 L215.317,43.097 C217.967,43.097 219.716,41.295 219.716,37.532 C219.716,34.193 218.126,32.709 215.635,32.709 C212.879,32.709 211.342,34.405 211.342,38.009 L211.342,60.216 C212.72,61.064 214.257,61.488 216.589,61.488 Z" id="β" fill="#357EDD"></path>
        </g>
    </g>
</svg>