<svg xmlns="http://www.w3.org/2000/svg" width="400" height="257" fill="none"><path fill="#000" fill-rule="evenodd" d="M36.208 129.243c10.042 0 17.778 2.986 24.699 8.821l-9.228 12.757c-4.615-3.528-8.822-5.157-13.707-5.157-9.229 0-14.521 6.243-14.521 22.393 0 16.014 5.7 20.899 14.25 20.899 5.156 0 8.685-1.628 13.842-4.885l9.364 13.3c-6.65 5.292-14.385 8.549-24.292 8.549-22.121 0-35.693-14.928-35.693-37.728 0-22.935 13.707-38.949 35.286-38.949m52.927 76.678c-12.485 0-19.814-7.465-19.814-20.629v-82.377l21.443-2.307v83.87c0 2.986 1.085 4.479 3.664 4.479 1.493 0 2.578-.272 3.528-.679l4.207 15.2c-3.257 1.357-7.87 2.443-13.028 2.443m33.114-112.37c7.464 0 12.757 5.293 12.757 12.214s-5.293 12.214-12.757 12.214-12.621-5.293-12.621-12.214 5.157-12.214 12.621-12.214m10.721 37.999v63.921c0 23.478-12.078 32.028-28.907 38.135l-7.192-15.607c9.228-4.207 14.657-8.007 14.657-21.171V131.55zm59.985-30.942 21.442 2.307v100.698h-19l-1.085-8.414c-4.072 5.972-10.721 10.722-20.493 10.722-18.321 0-27.414-15.2-27.414-38.543 0-22.256 11.265-38.135 29.857-38.135 6.514 0 12.35 2.579 16.693 6.786zm-12.35 89.57c5.021 0 8.957-2.714 12.35-8.007v-31.214c-3.257-3.8-6.514-6.107-11.129-6.107-7.735 0-13.164 6.514-13.164 22.664 0 17.914 4.886 22.664 11.943 22.664m81.834-60.935c21.986 0 35.285 14.114 35.285 38.407 0 23.071-13.299 38.27-35.285 38.27-21.849 0-35.285-14.114-35.285-38.406 0-23.071 13.3-38.271 35.285-38.271m0 15.743c-8.685 0-13.028 6.921-13.028 22.528 0 16.014 4.343 22.664 13.028 22.664s13.029-6.921 13.029-22.528c0-16.014-4.343-22.664-13.029-22.664m79.256-15.743c10.043 0 17.778 2.986 24.699 8.821l-9.228 12.757c-4.614-3.528-8.821-5.157-13.707-5.157-9.228 0-14.521 6.243-14.521 22.393 0 16.014 5.7 20.899 14.25 20.899 5.157 0 8.685-1.628 13.842-4.885l9.364 13.3c-6.649 5.292-14.385 8.549-24.292 8.549-22.121 0-35.692-14.928-35.692-37.728 0-22.935 13.707-38.949 35.285-38.949" clip-rule="evenodd"/><path fill="#357EDD" d="M212.865 16.623v74.379l-16.624-1.876V0h147.456l56.114 51.2V257h-203.57v-42.353h16.624v25.73h170.323V58.535l-45.935-41.912z"/></svg>