<svg xmlns="http://www.w3.org/2000/svg" width="512" height="512"><g style="stroke-width:.127802"><path d="M68.008 76.066v20.75h3.5v-17.25h30.984l12.738 11.102v44.678h-43.5v-4.584h-3.5v8.084h50.5v-49.77l-14.927-13.01Z" style="fill:#347edd;fill-opacity:.976471;stroke-width:.127802" transform="matrix(7.82461 0 0 7.82461 -437.09 -584.457)"/><path fill-rule="evenodd" d="M67.991 102.602c2.94 0 5.203.874 7.229 2.582l-2.7 3.734c-1.351-1.033-2.583-1.51-4.013-1.51-2.7 0-4.25 1.827-4.25 6.554 0 4.687 1.669 6.117 4.171 6.117 1.51 0 2.542-.477 4.051-1.43l2.741 3.893c-1.946 1.548-4.21 2.502-7.11 2.502-6.474 0-10.446-4.37-10.446-11.042 0-6.713 4.012-11.4 10.327-11.4m15.49 22.442c-3.654 0-5.798-2.185-5.798-6.038v-24.11l6.275-.674v24.546c0 .874.318 1.311 1.073 1.311.436 0 .754-.08 1.032-.199l1.231 4.449c-.953.397-2.303.715-3.812.715m9.692-32.888c2.185 0 3.734 1.55 3.734 3.575s-1.55 3.575-3.734 3.575-3.694-1.55-3.694-3.575 1.51-3.575 3.694-3.575m3.138 11.122v18.707c0 6.872-3.535 9.374-8.46 11.162l-2.105-4.568c2.7-1.231 4.29-2.344 4.29-6.196v-19.105z" clip-rule="evenodd" style="fill:#22518f;fill-opacity:1;stroke-width:.127802" transform="matrix(7.82461 0 0 7.82461 -437.09 -584.457)"/></g></svg>