<svg width="400" height="257" viewBox="0 0 400 257" fill="none" xmlns="http://www.w3.org/2000/svg">
<path fill-rule="evenodd" clip-rule="evenodd" d="M36.2075 129.243C46.2502 129.243 53.9857 132.229 60.907 138.064L51.6786 150.821C47.0644 147.293 42.8574 145.664 37.9717 145.664C28.7433 145.664 23.4505 151.907 23.4505 168.057C23.4505 184.071 29.1504 188.956 37.7003 188.956C42.8574 188.956 46.3859 187.328 51.5429 184.071L60.907 197.371C54.2572 202.663 46.5216 205.92 36.6146 205.92C14.4936 205.92 0.922363 190.992 0.922363 168.192C0.922363 145.257 14.6293 129.243 36.2075 129.243ZM89.1351 205.921C76.6496 205.921 69.3212 198.456 69.3212 185.292V102.915L90.7637 100.608V184.478C90.7637 187.464 91.8494 188.957 94.4279 188.957C95.9207 188.957 97.0064 188.685 97.9564 188.278L102.163 203.478C98.9064 204.835 94.2922 205.921 89.1351 205.921ZM122.249 93.5509C129.713 93.5509 135.006 98.8437 135.006 105.765C135.006 112.686 129.713 117.979 122.249 117.979C114.785 117.979 109.628 112.686 109.628 105.765C109.628 98.8437 114.785 93.5509 122.249 93.5509ZM132.97 131.55V195.471C132.97 218.949 120.892 227.499 104.063 233.606L96.8707 217.999C106.099 213.792 111.528 209.992 111.528 196.828V131.55H132.97ZM192.955 100.608L214.397 102.915V203.613H195.397L194.312 195.199C190.24 201.171 183.591 205.921 173.819 205.921C155.498 205.921 146.405 190.721 146.405 167.378C146.405 145.122 157.67 129.243 176.262 129.243C182.776 129.243 188.612 131.822 192.955 136.029V100.608ZM180.605 190.178C185.626 190.178 189.562 187.464 192.955 182.171V150.957C189.698 147.157 186.441 144.85 181.826 144.85C174.091 144.85 168.662 151.364 168.662 167.514C168.662 185.428 173.548 190.178 180.605 190.178ZM262.439 129.243C284.425 129.243 297.724 143.357 297.724 167.65C297.724 190.721 284.425 205.92 262.439 205.92C240.59 205.92 227.154 191.806 227.154 167.514C227.154 144.443 240.454 129.243 262.439 129.243ZM262.439 144.986C253.754 144.986 249.411 151.907 249.411 167.514C249.411 183.528 253.754 190.178 262.439 190.178C271.125 190.178 275.468 183.257 275.468 167.65C275.468 151.636 271.125 144.986 262.439 144.986ZM341.695 129.243C351.738 129.243 359.473 132.229 366.394 138.064L357.166 150.821C352.552 147.293 348.345 145.664 343.459 145.664C334.231 145.664 328.938 151.907 328.938 168.057C328.938 184.071 334.638 188.956 343.188 188.956C348.345 188.956 351.873 187.328 357.03 184.071L366.394 197.371C359.745 202.663 352.009 205.92 342.102 205.92C319.981 205.92 306.41 190.992 306.41 168.192C306.41 145.257 320.117 129.243 341.695 129.243Z" fill="black"/>
<path d="M212.865 16.6234V91.0017L196.241 89.1262V0L343.697 0L399.811 51.1998V257H196.241V214.647H212.865V240.377H383.188V58.5354L337.253 16.6234H212.865Z" fill="#357EDD"/>
</svg>
