<svg xmlns="http://www.w3.org/2000/svg" xmlns:xlink="http://www.w3.org/1999/xlink" width="15.931" height="16.581" viewBox="0 0 4.215 4.387"><defs><linearGradient xlink:href="#a" id="b" x1="42519.285" x2="42575.336" y1="-7078.789" y2="-6966.931" gradientUnits="userSpaceOnUse"/><linearGradient id="a"><stop offset="0" style="stop-color:#707070;stop-opacity:0"/><stop offset=".495" style="stop-color:#707070;stop-opacity:.48923996"/><stop offset="1" style="stop-color:#707070;stop-opacity:.63279623"/></linearGradient></defs><g transform="translate(-44.877 -76.128)"><circle cx="46.984" cy="78.235" r="2.108" style="fill:#fff;fill-opacity:.989919;stroke-width:.264583"/><path d="M42519.285-7078.79a.76.568 0 0 0-.738.675l33.586 125.888a87.2 87.2 0 0 0 39.381-33.763l-71.565-92.52a.76.568 0 0 0-.664-.28" style="opacity:.5;vector-effect:none;fill:url(#b);fill-opacity:1;stroke:none;stroke-width:3.67846;stroke-linecap:butt;stroke-linejoin:miter;stroke-miterlimit:2;stroke-dasharray:none;stroke-dashoffset:0;stroke-opacity:1;paint-order:stroke markers fill" transform="matrix(.02417 0 0 .02417 -980.822 248.232)"/><path d="M42517.32-7119.48a87.18 87.18 0 0 0-86.855 87.181 87.2 87.2 0 0 0 13.312 46.305l72.688-93.973a1.361 1.016 0 0 1 2.359 0l72.692 93.977a87.2 87.2 0 0 0 13.314-46.309 87.18 87.18 0 0 0-87.182-87.182z" style="opacity:1;fill:#707070;fill-opacity:1;stroke:none;stroke-width:2.01453px;stroke-opacity:1;paint-order:stroke markers fill" transform="matrix(.02417 0 0 .02417 -980.822 248.232)"/></g></svg>