<svg xmlns="http://www.w3.org/2000/svg" xmlns:xlink="http://www.w3.org/1999/xlink" width="15.952" height="15.935" viewBox="0 0 4.221 4.216"><defs><linearGradient xlink:href="#a" id="b" x1="42519.285" x2="42575.336" y1="-7078.789" y2="-6966.931" gradientTransform="translate(-1025.544 172.105)scale(.02417)" gradientUnits="userSpaceOnUse"/><linearGradient id="a"><stop offset="0" style="stop-color:#707070;stop-opacity:0"/><stop offset=".495" style="stop-color:#707070;stop-opacity:.48923996"/><stop offset="1" style="stop-color:#707070;stop-opacity:.63279623"/></linearGradient></defs><g style="stroke-width:1.02564" transform="translate(.059 .027)scale(.975)"><circle cx="2.102" cy="2.135" r="2.108" style="fill:#fff;fill-opacity:.989919;stroke-width:.271367"/><path d="M2.147 1.01a.018.014 0 0 0-.018.017L2.94 4.07a2.1 2.1 0 0 0 .951-.816l-1.73-2.237a.018.014 0 0 0-.015-.006" style="opacity:.5;vector-effect:none;fill:url(#b);fill-opacity:1;stroke:none;stroke-width:.0911881;stroke-linecap:butt;stroke-linejoin:miter;stroke-miterlimit:2;stroke-dasharray:none;stroke-dashoffset:0;stroke-opacity:1;paint-order:stroke markers fill"/><path d="M2.1.027A2.107 2.107 0 0 0 0 2.134a2.1 2.1 0 0 0 .322 1.12L2.079.982a.033.025 0 0 1 .057 0l1.757 2.272a2.1 2.1 0 0 0 .321-1.12A2.107 2.107 0 0 0 2.107.027Z" style="fill:#707070;fill-opacity:1;stroke:none;stroke-width:.0499397px;stroke-opacity:1;paint-order:stroke markers fill"/></g></svg>