<?xml version="1.0" encoding="UTF-8" standalone="no"?>
<svg
   viewBox="0 0 268.70001 36.2"
   version="1.1"
   id="svg2"
   width="268.70001"
   height="36.200001"
   xmlns="http://www.w3.org/2000/svg"
   xmlns:svg="http://www.w3.org/2000/svg">
  <defs
     id="defs2" />
  <path
     fill="#da291c"
     d="M 20.9,0 0,36.2 h 2.9 l 18,-31 v 5.1 l -15,25.9 h 3 l 12,-20.7 v 5.2 l -9,15.5 h 3 l 6,-10.3 V 31 l -3,5.2 h 23.9 z"
     id="path1" />
  <path
     d="M 50.8,5.2 H 70 V 9.3 H 55.4 V 16 h 13 v 4.1 h -13 V 27 h 14.8 v 4.1 H 50.8 Z m 48.7,0 -9,12.6 9.4,13.2 H 94.5 L 87.7,21.1 80.9,31 H 75.7 L 85,17.8 76,5.1 h 5.4 l 6.4,9.3 6.5,-9.3 h 5.2 z m 4.1,13 c 0,-7.4 5.6,-13.4 13.6,-13.4 7.9,0 13.5,6 13.5,13.3 0,7.3 -5.6,13.4 -13.6,13.4 -7.9,0 -13.5,-6 -13.5,-13.3 z m 22.3,0 c 0,-5.1 -3.7,-9.2 -8.8,-9.2 -5.1,0 -8.7,4.1 -8.7,9.1 0,5 3.7,9.2 8.8,9.2 5.1,0 8.7,-4.1 8.7,-9.1 z m 10.4,9.1 2.7,-3.3 c 2.5,2.1 5,3.4 8.2,3.4 2.8,0 4.6,-1.3 4.6,-3.3 V 24 c 0,-1.8 -1,-2.8 -5.8,-4 -5.5,-1.3 -8.6,-3 -8.6,-7.7 v -0.1 c 0,-4.4 3.7,-7.5 8.8,-7.5 3.8,0 6.8,1.1 9.4,3.3 l -2.4,3.4 c -2.3,-1.7 -4.7,-2.7 -7,-2.7 -2.7,0 -4.2,1.4 -4.2,3.1 v 0.1 c 0,2 1.2,2.9 6.2,4.1 5.5,1.3 8.3,3.3 8.3,7.6 v 0.1 c 0,4.8 -3.8,7.7 -9.2,7.7 -4.1,0 -7.9,-1.4 -11,-4.1 z m 26.3,-9.1 c 0,-7.4 5.5,-13.4 13.3,-13.4 4.8,0 7.7,1.7 10.2,4 l -2.9,3.4 C 181.1,10.3 178.9,9 175.9,9 c -4.9,0 -8.5,4 -8.5,9.1 0,5.1 3.6,9.2 8.5,9.2 3.2,0 5.2,-1.3 7.4,-3.3 l 2.9,3 c -2.7,2.8 -5.7,4.6 -10.5,4.6 -7.5,-0.1 -13.1,-6 -13.1,-13.4 z M 202.3,5 h 4.2 l 11.4,26 h -4.8 l -2.6,-6.2 h -12.2 l -2.7,6.2 h -4.7 z m 6.5,15.8 -4.5,-10.3 -4.4,10.3 z M 224.4,5.2 h 4.5 v 21.7 h 13.6 V 31 h -18.1 z m 24.9,0 h 19.2 V 9.3 H 253.9 V 16 h 13 v 4.1 h -13 V 27 h 14.8 v 4.1 h -19.4 z"
     id="path2" />
</svg>
