<svg xmlns="http://www.w3.org/2000/svg" width="268.7" height="36.2"><path fill="#da291c" d="M20.9 0 0 36.2h2.9l18-31v5.1l-15 25.9h3l12-20.7v5.2l-9 15.5h3l6-10.3V31l-3 5.2h23.9z"/><path d="M50.8 5.2H70v4.1H55.4V16h13v4.1h-13V27h14.8v4.1H50.8Zm48.7 0-9 12.6L99.9 31h-5.4l-6.8-9.9-6.8 9.9h-5.2L85 17.8 76 5.1h5.4l6.4 9.3 6.5-9.3h5.2zm4.1 13c0-7.4 5.6-13.4 13.6-13.4 7.9 0 13.5 6 13.5 13.3s-5.6 13.4-13.6 13.4c-7.9 0-13.5-6-13.5-13.3m22.3 0c0-5.1-3.7-9.2-8.8-9.2s-8.7 4.1-8.7 9.1 3.7 9.2 8.8 9.2 8.7-4.1 8.7-9.1m10.4 9.1L139 24c2.5 2.1 5 3.4 8.2 3.4 2.8 0 4.6-1.3 4.6-3.3V24c0-1.8-1-2.8-5.8-4-5.5-1.3-8.6-3-8.6-7.7v-.1c0-4.4 3.7-7.5 8.8-7.5 3.8 0 6.8 1.1 9.4 3.3l-2.4 3.4c-2.3-1.7-4.7-2.7-7-2.7-2.7 0-4.2 1.4-4.2 3.1v.1c0 2 1.2 2.9 6.2 4.1 5.5 1.3 8.3 3.3 8.3 7.6v.1c0 4.8-3.8 7.7-9.2 7.7-4.1 0-7.9-1.4-11-4.1m26.3-9.1c0-7.4 5.5-13.4 13.3-13.4 4.8 0 7.7 1.7 10.2 4l-2.9 3.4c-2.1-1.9-4.3-3.2-7.3-3.2-4.9 0-8.5 4-8.5 9.1s3.6 9.2 8.5 9.2c3.2 0 5.2-1.3 7.4-3.3l2.9 3c-2.7 2.8-5.7 4.6-10.5 4.6-7.5-.1-13.1-6-13.1-13.4M202.3 5h4.2l11.4 26h-4.8l-2.6-6.2h-12.2l-2.7 6.2h-4.7zm6.5 15.8-4.5-10.3-4.4 10.3zm15.6-15.6h4.5v21.7h13.6V31h-18.1zm24.9 0h19.2v4.1h-14.6V16h13v4.1h-13V27h14.8v4.1h-19.4z"/></svg>