<?xml version="1.0" encoding="UTF-8" standalone="no"?>
<svg
   id="svg1468"
   version="1.1"
   viewBox="0 0 4.2150397 4.3869352"
   height="16.580542"
   width="15.93086"
   xmlns:xlink="http://www.w3.org/1999/xlink"
   xmlns="http://www.w3.org/2000/svg"
   xmlns:svg="http://www.w3.org/2000/svg"
   xmlns:rdf="http://www.w3.org/1999/02/22-rdf-syntax-ns#"
   xmlns:cc="http://creativecommons.org/ns#"
   xmlns:dc="http://purl.org/dc/elements/1.1/">
  <defs
     id="defs1462">
    <linearGradient
       gradientUnits="userSpaceOnUse"
       y2="-6966.9307"
       x2="42575.336"
       y1="-7078.7891"
       x1="42519.285"
       id="linearGradient6918"
       xlink:href="#linearGradient6924" />
    <linearGradient
       id="linearGradient6924">
      <stop
         id="stop6920"
         offset="0"
         style="stop-color:#707070;stop-opacity:0" />
      <stop
         style="stop-color:#707070;stop-opacity:0.48923996"
         offset="0.49517274"
         id="stop6926" />
      <stop
         id="stop6922"
         offset="1"
         style="stop-color:#707070;stop-opacity:0.63279623" />
    </linearGradient>
  </defs>
  <metadata
     id="metadata1465">
    <rdf:RDF>
      <cc:Work
         rdf:about="">
        <dc:format>image/svg+xml</dc:format>
        <dc:type
           rdf:resource="http://purl.org/dc/dcmitype/StillImage" />
        <dc:title />
      </cc:Work>
    </rdf:RDF>
  </metadata>
  <g
     transform="translate(-44.876581,-76.12794)"
     id="layer1">
    <ellipse
       style="fill:#ffffff;fill-opacity:0.989919;stroke-width:0.264583"
       id="path4524"
       cx="46.9841"
       cy="78.235458"
       rx="2.1075189"
       ry="2.1075187" />
    <g
       transform="matrix(0.09136496,0,0,0.09136496,-980.82243,248.23174)"
       id="g6933">
      <path
         id="path6733"
         style="opacity:0.5;vector-effect:none;fill:url(#linearGradient6918);fill-opacity:1;stroke:none;stroke-width:3.67846;stroke-linecap:butt;stroke-linejoin:miter;stroke-miterlimit:2;stroke-dasharray:none;stroke-dashoffset:0;stroke-opacity:1;paint-order:stroke markers fill"
         d="m 42519.285,-7078.7891 a 0.76086879,0.56791688 0 0 0 -0.738,0.6739 l 33.586,125.8886 a 87.182358,87.182358 0 0 0 39.381,-33.7636 l -71.565,-92.5196 a 0.76086879,0.56791688 0 0 0 -0.664,-0.2793 z"
         transform="scale(0.26458333)" />
      <path
         transform="scale(0.26458333)"
         id="circle6810"
         style="opacity:1;fill:#707070;fill-opacity:1;stroke:none;stroke-width:2.01453px;stroke-opacity:1;paint-order:stroke markers fill"
         d="m 42517.32,-7119.4805 a 87.182358,87.182358 0 0 0 -86.855,87.1817 87.182358,87.182358 0 0 0 13.312,46.3047 l 72.688,-93.9727 a 1.3609979,1.0158567 0 0 1 2.359,0 l 72.692,93.9766 a 87.182358,87.182358 0 0 0 13.314,-46.3086 87.182358,87.182358 0 0 0 -87.182,-87.1817 87.182358,87.182358 0 0 0 -0.328,0 z" />
    </g>
  </g>
</svg>
